<?xml version="1.0" encoding="utf-8" standalone="no"?>
<!DOCTYPE svg PUBLIC "-//W3C//DTD SVG 1.1//EN"
  "http://www.w3.org/Graphics/SVG/1.1/DTD/svg11.dtd">
<svg xmlns:xlink="http://www.w3.org/1999/xlink" width="936pt" height="720pt" viewBox="0 0 936 720" xmlns="http://www.w3.org/2000/svg" version="1.1">
 <metadata>
  <rdf:RDF xmlns:dc="http://purl.org/dc/elements/1.1/" xmlns:cc="http://creativecommons.org/ns#" xmlns:rdf="http://www.w3.org/1999/02/22-rdf-syntax-ns#">
   <cc:Work>
    <dc:type rdf:resource="http://purl.org/dc/dcmitype/StillImage"/>
    <dc:date>2024-02-19T12:57:57.480634</dc:date>
    <dc:format>image/svg+xml</dc:format>
    <dc:creator>
     <cc:Agent>
      <dc:title>Matplotlib v3.7.2, https://matplotlib.org/</dc:title>
     </cc:Agent>
    </dc:creator>
   </cc:Work>
  </rdf:RDF>
 </metadata>
 <defs>
  <style type="text/css">*{stroke-linejoin: round; stroke-linecap: butt}</style>
 </defs>
 <g id="figure_1">
  <g id="patch_1">
   <path d="M 0 720 
L 936 720 
L 936 0 
L 0 0 
z
" style="fill: #ffffff"/>
  </g>
  <g id="axes_1">
   <g id="patch_2">
    <path d="M 109.64 669.4 
L 503.434627 669.4 
L 503.434627 26.16 
L 109.64 26.16 
z
" style="fill: #ffffff"/>
   </g>
   <g id="patch_3">
    <path d="M 109.64 640.161818 
L 109.64 640.161818 
L 109.64 629.058711 
L 109.64 629.058711 
z
" clip-path="url(#p9d4c96319f)" style="fill: #0072b2"/>
   </g>
   <g id="patch_4">
    <path d="M 109.64 621.65664 
L 109.64 621.65664 
L 109.64 610.553533 
L 109.64 610.553533 
z
" clip-path="url(#p9d4c96319f)" style="fill: #0072b2"/>
   </g>
   <g id="patch_5">
    <path d="M 109.64 603.151461 
L 110.330504 603.151461 
L 110.330504 592.048354 
L 109.64 592.048354 
z
" clip-path="url(#p9d4c96319f)" style="fill: #0072b2"/>
   </g>
   <g id="patch_6">
    <path d="M 109.64 584.646283 
L 110.435277 584.646283 
L 110.435277 573.543176 
L 109.64 573.543176 
z
" clip-path="url(#p9d4c96319f)" style="fill: #0072b2"/>
   </g>
   <g id="patch_7">
    <path d="M 109.64 566.141105 
L 110.592287 566.141105 
L 110.592287 555.037998 
L 109.64 555.037998 
z
" clip-path="url(#p9d4c96319f)" style="fill: #0072b2"/>
   </g>
   <g id="patch_8">
    <path d="M 109.64 547.635926 
L 110.716334 547.635926 
L 110.716334 536.532819 
L 109.64 536.532819 
z
" clip-path="url(#p9d4c96319f)" style="fill: #0072b2"/>
   </g>
   <g id="patch_9">
    <path d="M 109.64 529.130748 
L 111.500946 529.130748 
L 111.500946 518.027641 
L 109.64 518.027641 
z
" clip-path="url(#p9d4c96319f)" style="fill: #0072b2"/>
   </g>
   <g id="patch_10">
    <path d="M 109.64 510.62557 
L 111.590349 510.62557 
L 111.590349 499.522463 
L 109.64 499.522463 
z
" clip-path="url(#p9d4c96319f)" style="fill: #0072b2"/>
   </g>
   <g id="patch_11">
    <path d="M 109.64 492.120391 
L 112.381681 492.120391 
L 112.381681 481.017284 
L 109.64 481.017284 
z
" clip-path="url(#p9d4c96319f)" style="fill: #0072b2"/>
   </g>
   <g id="patch_12">
    <path d="M 109.64 473.615213 
L 112.769604 473.615213 
L 112.769604 462.512106 
L 109.64 462.512106 
z
" clip-path="url(#p9d4c96319f)" style="fill: #0072b2"/>
   </g>
   <g id="patch_13">
    <path d="M 109.64 455.110035 
L 113.18098 455.110035 
L 113.18098 444.006928 
L 109.64 444.006928 
z
" clip-path="url(#p9d4c96319f)" style="fill: #0072b2"/>
   </g>
   <g id="patch_14">
    <path d="M 109.64 436.604856 
L 113.347131 436.604856 
L 113.347131 425.501749 
L 109.64 425.501749 
z
" clip-path="url(#p9d4c96319f)" style="fill: #0072b2"/>
   </g>
   <g id="patch_15">
    <path d="M 109.64 418.099678 
L 115.328094 418.099678 
L 115.328094 406.996571 
L 109.64 406.996571 
z
" clip-path="url(#p9d4c96319f)" style="fill: #0072b2"/>
   </g>
   <g id="patch_16">
    <path d="M 109.64 399.594499 
L 116.48316 399.594499 
L 116.48316 388.491392 
L 109.64 388.491392 
z
" clip-path="url(#p9d4c96319f)" style="fill: #0072b2"/>
   </g>
   <g id="patch_17">
    <path d="M 109.64 381.089321 
L 117.581274 381.089321 
L 117.581274 369.986214 
L 109.64 369.986214 
z
" clip-path="url(#p9d4c96319f)" style="fill: #0072b2"/>
   </g>
   <g id="patch_18">
    <path d="M 109.64 362.584143 
L 117.960481 362.584143 
L 117.960481 351.481036 
L 109.64 351.481036 
z
" clip-path="url(#p9d4c96319f)" style="fill: #0072b2"/>
   </g>
   <g id="patch_19">
    <path d="M 109.64 344.078964 
L 118.065981 344.078964 
L 118.065981 332.975857 
L 109.64 332.975857 
z
" clip-path="url(#p9d4c96319f)" style="fill: #0072b2"/>
   </g>
   <g id="patch_20">
    <path d="M 109.64 325.573786 
L 119.821436 325.573786 
L 119.821436 314.470679 
L 109.64 314.470679 
z
" clip-path="url(#p9d4c96319f)" style="fill: #0072b2"/>
   </g>
   <g id="patch_21">
    <path d="M 109.64 307.068608 
L 120.398916 307.068608 
L 120.398916 295.965501 
L 109.64 295.965501 
z
" clip-path="url(#p9d4c96319f)" style="fill: #0072b2"/>
   </g>
   <g id="patch_22">
    <path d="M 109.64 288.563429 
L 121.633869 288.563429 
L 121.633869 277.460322 
L 109.64 277.460322 
z
" clip-path="url(#p9d4c96319f)" style="fill: #0072b2"/>
   </g>
   <g id="patch_23">
    <path d="M 109.64 270.058251 
L 128.73264 270.058251 
L 128.73264 258.955144 
L 109.64 258.955144 
z
" clip-path="url(#p9d4c96319f)" style="fill: #0072b2"/>
   </g>
   <g id="patch_24">
    <path d="M 109.64 251.553072 
L 135.749531 251.553072 
L 135.749531 240.449965 
L 109.64 240.449965 
z
" clip-path="url(#p9d4c96319f)" style="fill: #0072b2"/>
   </g>
   <g id="patch_25">
    <path d="M 109.64 233.047894 
L 177.720609 233.047894 
L 177.720609 221.944787 
L 109.64 221.944787 
z
" clip-path="url(#p9d4c96319f)" style="fill: #0072b2"/>
   </g>
   <g id="patch_26">
    <path d="M 109.64 214.542716 
L 187.289487 214.542716 
L 187.289487 203.439609 
L 109.64 203.439609 
z
" clip-path="url(#p9d4c96319f)" style="fill: #0072b2"/>
   </g>
   <g id="patch_27">
    <path d="M 109.64 196.037537 
L 195.920116 196.037537 
L 195.920116 184.93443 
L 109.64 184.93443 
z
" clip-path="url(#p9d4c96319f)" style="fill: #0072b2"/>
   </g>
   <g id="patch_28">
    <path d="M 109.64 177.532359 
L 230.71737 177.532359 
L 230.71737 166.429252 
L 109.64 166.429252 
z
" clip-path="url(#p9d4c96319f)" style="fill: #0072b2"/>
   </g>
   <g id="patch_29">
    <path d="M 109.64 159.027181 
L 256.643243 159.027181 
L 256.643243 147.924074 
L 109.64 147.924074 
z
" clip-path="url(#p9d4c96319f)" style="fill: #0072b2"/>
   </g>
   <g id="patch_30">
    <path d="M 109.64 140.522002 
L 293.127642 140.522002 
L 293.127642 129.418895 
L 109.64 129.418895 
z
" clip-path="url(#p9d4c96319f)" style="fill: #0072b2"/>
   </g>
   <g id="patch_31">
    <path d="M 109.64 122.016824 
L 363.367211 122.016824 
L 363.367211 110.913717 
L 109.64 110.913717 
z
" clip-path="url(#p9d4c96319f)" style="fill: #0072b2"/>
   </g>
   <g id="patch_32">
    <path d="M 109.64 103.511646 
L 396.150002 103.511646 
L 396.150002 92.408539 
L 109.64 92.408539 
z
" clip-path="url(#p9d4c96319f)" style="fill: #0072b2"/>
   </g>
   <g id="patch_33">
    <path d="M 109.64 85.006467 
L 475.214965 85.006467 
L 475.214965 73.90336 
L 109.64 73.90336 
z
" clip-path="url(#p9d4c96319f)" style="fill: #0072b2"/>
   </g>
   <g id="patch_34">
    <path d="M 109.64 66.501289 
L 484.682501 66.501289 
L 484.682501 55.398182 
L 109.64 55.398182 
z
" clip-path="url(#p9d4c96319f)" style="fill: #0072b2"/>
   </g>
   <g id="matplotlib.axis_1">
    <g id="xtick_1">
     <g id="line2d_1">
      <defs>
       <path id="m1f1fab585d" d="M 0 0 
L 0 3.5 
" style="stroke: #000000; stroke-width: 0.8"/>
      </defs>
      <g>
       <use xlink:href="#m1f1fab585d" x="109.64" y="669.4" style="stroke: #000000; stroke-width: 0.8"/>
      </g>
     </g>
     <g id="text_1">
      <!-- 0 -->
      <g transform="translate(104.868125 687.797656) scale(0.15 -0.15)">
       <defs>
        <path id="DejaVuSans-30" d="M 2034 4250 
Q 1547 4250 1301 3770 
Q 1056 3291 1056 2328 
Q 1056 1369 1301 889 
Q 1547 409 2034 409 
Q 2525 409 2770 889 
Q 3016 1369 3016 2328 
Q 3016 3291 2770 3770 
Q 2525 4250 2034 4250 
z
M 2034 4750 
Q 2819 4750 3233 4129 
Q 3647 3509 3647 2328 
Q 3647 1150 3233 529 
Q 2819 -91 2034 -91 
Q 1250 -91 836 529 
Q 422 1150 422 2328 
Q 422 3509 836 4129 
Q 1250 4750 2034 4750 
z
" transform="scale(0.015625)"/>
       </defs>
       <use xlink:href="#DejaVuSans-30"/>
      </g>
     </g>
    </g>
    <g id="xtick_2">
     <g id="line2d_2">
      <g>
       <use xlink:href="#m1f1fab585d" x="191.943947" y="669.4" style="stroke: #000000; stroke-width: 0.8"/>
      </g>
     </g>
     <g id="text_2">
      <!-- 2000 -->
      <g transform="translate(172.856447 687.797656) scale(0.15 -0.15)">
       <defs>
        <path id="DejaVuSans-32" d="M 1228 531 
L 3431 531 
L 3431 0 
L 469 0 
L 469 531 
Q 828 903 1448 1529 
Q 2069 2156 2228 2338 
Q 2531 2678 2651 2914 
Q 2772 3150 2772 3378 
Q 2772 3750 2511 3984 
Q 2250 4219 1831 4219 
Q 1534 4219 1204 4116 
Q 875 4013 500 3803 
L 500 4441 
Q 881 4594 1212 4672 
Q 1544 4750 1819 4750 
Q 2544 4750 2975 4387 
Q 3406 4025 3406 3419 
Q 3406 3131 3298 2873 
Q 3191 2616 2906 2266 
Q 2828 2175 2409 1742 
Q 1991 1309 1228 531 
z
" transform="scale(0.015625)"/>
       </defs>
       <use xlink:href="#DejaVuSans-32"/>
       <use xlink:href="#DejaVuSans-30" x="63.623047"/>
       <use xlink:href="#DejaVuSans-30" x="127.246094"/>
       <use xlink:href="#DejaVuSans-30" x="190.869141"/>
      </g>
     </g>
    </g>
    <g id="xtick_3">
     <g id="line2d_3">
      <g>
       <use xlink:href="#m1f1fab585d" x="274.247893" y="669.4" style="stroke: #000000; stroke-width: 0.8"/>
      </g>
     </g>
     <g id="text_3">
      <!-- 4000 -->
      <g transform="translate(255.160393 687.797656) scale(0.15 -0.15)">
       <defs>
        <path id="DejaVuSans-34" d="M 2419 4116 
L 825 1625 
L 2419 1625 
L 2419 4116 
z
M 2253 4666 
L 3047 4666 
L 3047 1625 
L 3713 1625 
L 3713 1100 
L 3047 1100 
L 3047 0 
L 2419 0 
L 2419 1100 
L 313 1100 
L 313 1709 
L 2253 4666 
z
" transform="scale(0.015625)"/>
       </defs>
       <use xlink:href="#DejaVuSans-34"/>
       <use xlink:href="#DejaVuSans-30" x="63.623047"/>
       <use xlink:href="#DejaVuSans-30" x="127.246094"/>
       <use xlink:href="#DejaVuSans-30" x="190.869141"/>
      </g>
     </g>
    </g>
    <g id="xtick_4">
     <g id="line2d_4">
      <g>
       <use xlink:href="#m1f1fab585d" x="356.55184" y="669.4" style="stroke: #000000; stroke-width: 0.8"/>
      </g>
     </g>
     <g id="text_4">
      <!-- 6000 -->
      <g transform="translate(337.46434 687.797656) scale(0.15 -0.15)">
       <defs>
        <path id="DejaVuSans-36" d="M 2113 2584 
Q 1688 2584 1439 2293 
Q 1191 2003 1191 1497 
Q 1191 994 1439 701 
Q 1688 409 2113 409 
Q 2538 409 2786 701 
Q 3034 994 3034 1497 
Q 3034 2003 2786 2293 
Q 2538 2584 2113 2584 
z
M 3366 4563 
L 3366 3988 
Q 3128 4100 2886 4159 
Q 2644 4219 2406 4219 
Q 1781 4219 1451 3797 
Q 1122 3375 1075 2522 
Q 1259 2794 1537 2939 
Q 1816 3084 2150 3084 
Q 2853 3084 3261 2657 
Q 3669 2231 3669 1497 
Q 3669 778 3244 343 
Q 2819 -91 2113 -91 
Q 1303 -91 875 529 
Q 447 1150 447 2328 
Q 447 3434 972 4092 
Q 1497 4750 2381 4750 
Q 2619 4750 2861 4703 
Q 3103 4656 3366 4563 
z
" transform="scale(0.015625)"/>
       </defs>
       <use xlink:href="#DejaVuSans-36"/>
       <use xlink:href="#DejaVuSans-30" x="63.623047"/>
       <use xlink:href="#DejaVuSans-30" x="127.246094"/>
       <use xlink:href="#DejaVuSans-30" x="190.869141"/>
      </g>
     </g>
    </g>
    <g id="xtick_5">
     <g id="line2d_5">
      <g>
       <use xlink:href="#m1f1fab585d" x="438.855786" y="669.4" style="stroke: #000000; stroke-width: 0.8"/>
      </g>
     </g>
     <g id="text_5">
      <!-- 8000 -->
      <g transform="translate(419.768286 687.797656) scale(0.15 -0.15)">
       <defs>
        <path id="DejaVuSans-38" d="M 2034 2216 
Q 1584 2216 1326 1975 
Q 1069 1734 1069 1313 
Q 1069 891 1326 650 
Q 1584 409 2034 409 
Q 2484 409 2743 651 
Q 3003 894 3003 1313 
Q 3003 1734 2745 1975 
Q 2488 2216 2034 2216 
z
M 1403 2484 
Q 997 2584 770 2862 
Q 544 3141 544 3541 
Q 544 4100 942 4425 
Q 1341 4750 2034 4750 
Q 2731 4750 3128 4425 
Q 3525 4100 3525 3541 
Q 3525 3141 3298 2862 
Q 3072 2584 2669 2484 
Q 3125 2378 3379 2068 
Q 3634 1759 3634 1313 
Q 3634 634 3220 271 
Q 2806 -91 2034 -91 
Q 1263 -91 848 271 
Q 434 634 434 1313 
Q 434 1759 690 2068 
Q 947 2378 1403 2484 
z
M 1172 3481 
Q 1172 3119 1398 2916 
Q 1625 2713 2034 2713 
Q 2441 2713 2670 2916 
Q 2900 3119 2900 3481 
Q 2900 3844 2670 4047 
Q 2441 4250 2034 4250 
Q 1625 4250 1398 4047 
Q 1172 3844 1172 3481 
z
" transform="scale(0.015625)"/>
       </defs>
       <use xlink:href="#DejaVuSans-38"/>
       <use xlink:href="#DejaVuSans-30" x="63.623047"/>
       <use xlink:href="#DejaVuSans-30" x="127.246094"/>
       <use xlink:href="#DejaVuSans-30" x="190.869141"/>
      </g>
     </g>
    </g>
    <g id="text_6">
     <!-- Shap Value -->
     <g transform="translate(264.68497 706.314844) scale(0.15 -0.15)">
      <defs>
       <path id="DejaVuSans-53" d="M 3425 4513 
L 3425 3897 
Q 3066 4069 2747 4153 
Q 2428 4238 2131 4238 
Q 1616 4238 1336 4038 
Q 1056 3838 1056 3469 
Q 1056 3159 1242 3001 
Q 1428 2844 1947 2747 
L 2328 2669 
Q 3034 2534 3370 2195 
Q 3706 1856 3706 1288 
Q 3706 609 3251 259 
Q 2797 -91 1919 -91 
Q 1588 -91 1214 -16 
Q 841 59 441 206 
L 441 856 
Q 825 641 1194 531 
Q 1563 422 1919 422 
Q 2459 422 2753 634 
Q 3047 847 3047 1241 
Q 3047 1584 2836 1778 
Q 2625 1972 2144 2069 
L 1759 2144 
Q 1053 2284 737 2584 
Q 422 2884 422 3419 
Q 422 4038 858 4394 
Q 1294 4750 2059 4750 
Q 2388 4750 2728 4690 
Q 3069 4631 3425 4513 
z
" transform="scale(0.015625)"/>
       <path id="DejaVuSans-68" d="M 3513 2113 
L 3513 0 
L 2938 0 
L 2938 2094 
Q 2938 2591 2744 2837 
Q 2550 3084 2163 3084 
Q 1697 3084 1428 2787 
Q 1159 2491 1159 1978 
L 1159 0 
L 581 0 
L 581 4863 
L 1159 4863 
L 1159 2956 
Q 1366 3272 1645 3428 
Q 1925 3584 2291 3584 
Q 2894 3584 3203 3211 
Q 3513 2838 3513 2113 
z
" transform="scale(0.015625)"/>
       <path id="DejaVuSans-61" d="M 2194 1759 
Q 1497 1759 1228 1600 
Q 959 1441 959 1056 
Q 959 750 1161 570 
Q 1363 391 1709 391 
Q 2188 391 2477 730 
Q 2766 1069 2766 1631 
L 2766 1759 
L 2194 1759 
z
M 3341 1997 
L 3341 0 
L 2766 0 
L 2766 531 
Q 2569 213 2275 61 
Q 1981 -91 1556 -91 
Q 1019 -91 701 211 
Q 384 513 384 1019 
Q 384 1609 779 1909 
Q 1175 2209 1959 2209 
L 2766 2209 
L 2766 2266 
Q 2766 2663 2505 2880 
Q 2244 3097 1772 3097 
Q 1472 3097 1187 3025 
Q 903 2953 641 2809 
L 641 3341 
Q 956 3463 1253 3523 
Q 1550 3584 1831 3584 
Q 2591 3584 2966 3190 
Q 3341 2797 3341 1997 
z
" transform="scale(0.015625)"/>
       <path id="DejaVuSans-70" d="M 1159 525 
L 1159 -1331 
L 581 -1331 
L 581 3500 
L 1159 3500 
L 1159 2969 
Q 1341 3281 1617 3432 
Q 1894 3584 2278 3584 
Q 2916 3584 3314 3078 
Q 3713 2572 3713 1747 
Q 3713 922 3314 415 
Q 2916 -91 2278 -91 
Q 1894 -91 1617 61 
Q 1341 213 1159 525 
z
M 3116 1747 
Q 3116 2381 2855 2742 
Q 2594 3103 2138 3103 
Q 1681 3103 1420 2742 
Q 1159 2381 1159 1747 
Q 1159 1113 1420 752 
Q 1681 391 2138 391 
Q 2594 391 2855 752 
Q 3116 1113 3116 1747 
z
" transform="scale(0.015625)"/>
       <path id="DejaVuSans-20" transform="scale(0.015625)"/>
       <path id="DejaVuSans-56" d="M 1831 0 
L 50 4666 
L 709 4666 
L 2188 738 
L 3669 4666 
L 4325 4666 
L 2547 0 
L 1831 0 
z
" transform="scale(0.015625)"/>
       <path id="DejaVuSans-6c" d="M 603 4863 
L 1178 4863 
L 1178 0 
L 603 0 
L 603 4863 
z
" transform="scale(0.015625)"/>
       <path id="DejaVuSans-75" d="M 544 1381 
L 544 3500 
L 1119 3500 
L 1119 1403 
Q 1119 906 1312 657 
Q 1506 409 1894 409 
Q 2359 409 2629 706 
Q 2900 1003 2900 1516 
L 2900 3500 
L 3475 3500 
L 3475 0 
L 2900 0 
L 2900 538 
Q 2691 219 2414 64 
Q 2138 -91 1772 -91 
Q 1169 -91 856 284 
Q 544 659 544 1381 
z
M 1991 3584 
L 1991 3584 
z
" transform="scale(0.015625)"/>
       <path id="DejaVuSans-65" d="M 3597 1894 
L 3597 1613 
L 953 1613 
Q 991 1019 1311 708 
Q 1631 397 2203 397 
Q 2534 397 2845 478 
Q 3156 559 3463 722 
L 3463 178 
Q 3153 47 2828 -22 
Q 2503 -91 2169 -91 
Q 1331 -91 842 396 
Q 353 884 353 1716 
Q 353 2575 817 3079 
Q 1281 3584 2069 3584 
Q 2775 3584 3186 3129 
Q 3597 2675 3597 1894 
z
M 3022 2063 
Q 3016 2534 2758 2815 
Q 2500 3097 2075 3097 
Q 1594 3097 1305 2825 
Q 1016 2553 972 2059 
L 3022 2063 
z
" transform="scale(0.015625)"/>
      </defs>
      <use xlink:href="#DejaVuSans-53"/>
      <use xlink:href="#DejaVuSans-68" x="63.476562"/>
      <use xlink:href="#DejaVuSans-61" x="126.855469"/>
      <use xlink:href="#DejaVuSans-70" x="188.134766"/>
      <use xlink:href="#DejaVuSans-20" x="251.611328"/>
      <use xlink:href="#DejaVuSans-56" x="283.398438"/>
      <use xlink:href="#DejaVuSans-61" x="344.056641"/>
      <use xlink:href="#DejaVuSans-6c" x="405.335938"/>
      <use xlink:href="#DejaVuSans-75" x="433.119141"/>
      <use xlink:href="#DejaVuSans-65" x="496.498047"/>
     </g>
    </g>
   </g>
   <g id="matplotlib.axis_2">
    <g id="ytick_1">
     <g id="line2d_6">
      <defs>
       <path id="m0daed7c787" d="M 0 0 
L -3.5 0 
" style="stroke: #000000; stroke-width: 0.8"/>
      </defs>
      <g>
       <use xlink:href="#m0daed7c787" x="109.64" y="634.610265" style="stroke: #000000; stroke-width: 0.8"/>
      </g>
     </g>
     <g id="text_7">
      <!-- kf_ATR -->
      <g transform="translate(52.490781 640.309093) scale(0.15 -0.15)">
       <defs>
        <path id="DejaVuSans-6b" d="M 581 4863 
L 1159 4863 
L 1159 1991 
L 2875 3500 
L 3609 3500 
L 1753 1863 
L 3688 0 
L 2938 0 
L 1159 1709 
L 1159 0 
L 581 0 
L 581 4863 
z
" transform="scale(0.015625)"/>
        <path id="DejaVuSans-66" d="M 2375 4863 
L 2375 4384 
L 1825 4384 
Q 1516 4384 1395 4259 
Q 1275 4134 1275 3809 
L 1275 3500 
L 2222 3500 
L 2222 3053 
L 1275 3053 
L 1275 0 
L 697 0 
L 697 3053 
L 147 3053 
L 147 3500 
L 697 3500 
L 697 3744 
Q 697 4328 969 4595 
Q 1241 4863 1831 4863 
L 2375 4863 
z
" transform="scale(0.015625)"/>
        <path id="DejaVuSans-5f" d="M 3263 -1063 
L 3263 -1509 
L -63 -1509 
L -63 -1063 
L 3263 -1063 
z
" transform="scale(0.015625)"/>
        <path id="DejaVuSans-41" d="M 2188 4044 
L 1331 1722 
L 3047 1722 
L 2188 4044 
z
M 1831 4666 
L 2547 4666 
L 4325 0 
L 3669 0 
L 3244 1197 
L 1141 1197 
L 716 0 
L 50 0 
L 1831 4666 
z
" transform="scale(0.015625)"/>
        <path id="DejaVuSans-54" d="M -19 4666 
L 3928 4666 
L 3928 4134 
L 2272 4134 
L 2272 0 
L 1638 0 
L 1638 4134 
L -19 4134 
L -19 4666 
z
" transform="scale(0.015625)"/>
        <path id="DejaVuSans-52" d="M 2841 2188 
Q 3044 2119 3236 1894 
Q 3428 1669 3622 1275 
L 4263 0 
L 3584 0 
L 2988 1197 
Q 2756 1666 2539 1819 
Q 2322 1972 1947 1972 
L 1259 1972 
L 1259 0 
L 628 0 
L 628 4666 
L 2053 4666 
Q 2853 4666 3247 4331 
Q 3641 3997 3641 3322 
Q 3641 2881 3436 2590 
Q 3231 2300 2841 2188 
z
M 1259 4147 
L 1259 2491 
L 2053 2491 
Q 2509 2491 2742 2702 
Q 2975 2913 2975 3322 
Q 2975 3731 2742 3939 
Q 2509 4147 2053 4147 
L 1259 4147 
z
" transform="scale(0.015625)"/>
       </defs>
       <use xlink:href="#DejaVuSans-6b"/>
       <use xlink:href="#DejaVuSans-66" x="57.910156"/>
       <use xlink:href="#DejaVuSans-5f" x="93.115234"/>
       <use xlink:href="#DejaVuSans-41" x="143.115234"/>
       <use xlink:href="#DejaVuSans-54" x="203.773438"/>
       <use xlink:href="#DejaVuSans-52" x="264.857422"/>
      </g>
     </g>
    </g>
    <g id="ytick_2">
     <g id="line2d_7">
      <g>
       <use xlink:href="#m0daed7c787" x="109.64" y="616.105086" style="stroke: #000000; stroke-width: 0.8"/>
      </g>
     </g>
     <g id="text_8">
      <!-- MGMT0 -->
      <g transform="translate(46.4275 621.803914) scale(0.15 -0.15)">
       <defs>
        <path id="DejaVuSans-4d" d="M 628 4666 
L 1569 4666 
L 2759 1491 
L 3956 4666 
L 4897 4666 
L 4897 0 
L 4281 0 
L 4281 4097 
L 3078 897 
L 2444 897 
L 1241 4097 
L 1241 0 
L 628 0 
L 628 4666 
z
" transform="scale(0.015625)"/>
        <path id="DejaVuSans-47" d="M 3809 666 
L 3809 1919 
L 2778 1919 
L 2778 2438 
L 4434 2438 
L 4434 434 
Q 4069 175 3628 42 
Q 3188 -91 2688 -91 
Q 1594 -91 976 548 
Q 359 1188 359 2328 
Q 359 3472 976 4111 
Q 1594 4750 2688 4750 
Q 3144 4750 3555 4637 
Q 3966 4525 4313 4306 
L 4313 3634 
Q 3963 3931 3569 4081 
Q 3175 4231 2741 4231 
Q 1884 4231 1454 3753 
Q 1025 3275 1025 2328 
Q 1025 1384 1454 906 
Q 1884 428 2741 428 
Q 3075 428 3337 486 
Q 3600 544 3809 666 
z
" transform="scale(0.015625)"/>
       </defs>
       <use xlink:href="#DejaVuSans-4d"/>
       <use xlink:href="#DejaVuSans-47" x="86.279297"/>
       <use xlink:href="#DejaVuSans-4d" x="163.769531"/>
       <use xlink:href="#DejaVuSans-54" x="250.048828"/>
       <use xlink:href="#DejaVuSans-30" x="311.132812"/>
      </g>
     </g>
    </g>
    <g id="ytick_3">
     <g id="line2d_8">
      <g>
       <use xlink:href="#m0daed7c787" x="109.64" y="597.599908" style="stroke: #000000; stroke-width: 0.8"/>
      </g>
     </g>
     <g id="text_9">
      <!-- kt_Mdm2 -->
      <g transform="translate(33.954063 603.298736) scale(0.15 -0.15)">
       <defs>
        <path id="DejaVuSans-74" d="M 1172 4494 
L 1172 3500 
L 2356 3500 
L 2356 3053 
L 1172 3053 
L 1172 1153 
Q 1172 725 1289 603 
Q 1406 481 1766 481 
L 2356 481 
L 2356 0 
L 1766 0 
Q 1100 0 847 248 
Q 594 497 594 1153 
L 594 3053 
L 172 3053 
L 172 3500 
L 594 3500 
L 594 4494 
L 1172 4494 
z
" transform="scale(0.015625)"/>
        <path id="DejaVuSans-64" d="M 2906 2969 
L 2906 4863 
L 3481 4863 
L 3481 0 
L 2906 0 
L 2906 525 
Q 2725 213 2448 61 
Q 2172 -91 1784 -91 
Q 1150 -91 751 415 
Q 353 922 353 1747 
Q 353 2572 751 3078 
Q 1150 3584 1784 3584 
Q 2172 3584 2448 3432 
Q 2725 3281 2906 2969 
z
M 947 1747 
Q 947 1113 1208 752 
Q 1469 391 1925 391 
Q 2381 391 2643 752 
Q 2906 1113 2906 1747 
Q 2906 2381 2643 2742 
Q 2381 3103 1925 3103 
Q 1469 3103 1208 2742 
Q 947 2381 947 1747 
z
" transform="scale(0.015625)"/>
        <path id="DejaVuSans-6d" d="M 3328 2828 
Q 3544 3216 3844 3400 
Q 4144 3584 4550 3584 
Q 5097 3584 5394 3201 
Q 5691 2819 5691 2113 
L 5691 0 
L 5113 0 
L 5113 2094 
Q 5113 2597 4934 2840 
Q 4756 3084 4391 3084 
Q 3944 3084 3684 2787 
Q 3425 2491 3425 1978 
L 3425 0 
L 2847 0 
L 2847 2094 
Q 2847 2600 2669 2842 
Q 2491 3084 2119 3084 
Q 1678 3084 1418 2786 
Q 1159 2488 1159 1978 
L 1159 0 
L 581 0 
L 581 3500 
L 1159 3500 
L 1159 2956 
Q 1356 3278 1631 3431 
Q 1906 3584 2284 3584 
Q 2666 3584 2933 3390 
Q 3200 3197 3328 2828 
z
" transform="scale(0.015625)"/>
       </defs>
       <use xlink:href="#DejaVuSans-6b"/>
       <use xlink:href="#DejaVuSans-74" x="57.910156"/>
       <use xlink:href="#DejaVuSans-5f" x="97.119141"/>
       <use xlink:href="#DejaVuSans-4d" x="147.119141"/>
       <use xlink:href="#DejaVuSans-64" x="233.398438"/>
       <use xlink:href="#DejaVuSans-6d" x="296.875"/>
       <use xlink:href="#DejaVuSans-32" x="394.287109"/>
      </g>
     </g>
    </g>
    <g id="ytick_4">
     <g id="line2d_9">
      <g>
       <use xlink:href="#m0daed7c787" x="109.64" y="579.09473" style="stroke: #000000; stroke-width: 0.8"/>
      </g>
     </g>
     <g id="text_10">
      <!-- k_MMR -->
      <g transform="translate(50.147031 584.793558) scale(0.15 -0.15)">
       <use xlink:href="#DejaVuSans-6b"/>
       <use xlink:href="#DejaVuSans-5f" x="57.910156"/>
       <use xlink:href="#DejaVuSans-4d" x="107.910156"/>
       <use xlink:href="#DejaVuSans-4d" x="194.189453"/>
       <use xlink:href="#DejaVuSans-52" x="280.46875"/>
      </g>
     </g>
    </g>
    <g id="ytick_5">
     <g id="line2d_10">
      <g>
       <use xlink:href="#m0daed7c787" x="109.64" y="560.589551" style="stroke: #000000; stroke-width: 0.8"/>
      </g>
     </g>
     <g id="text_11">
      <!-- kf_Chk1 -->
      <g transform="translate(42.963438 566.288379) scale(0.15 -0.15)">
       <defs>
        <path id="DejaVuSans-43" d="M 4122 4306 
L 4122 3641 
Q 3803 3938 3442 4084 
Q 3081 4231 2675 4231 
Q 1875 4231 1450 3742 
Q 1025 3253 1025 2328 
Q 1025 1406 1450 917 
Q 1875 428 2675 428 
Q 3081 428 3442 575 
Q 3803 722 4122 1019 
L 4122 359 
Q 3791 134 3420 21 
Q 3050 -91 2638 -91 
Q 1578 -91 968 557 
Q 359 1206 359 2328 
Q 359 3453 968 4101 
Q 1578 4750 2638 4750 
Q 3056 4750 3426 4639 
Q 3797 4528 4122 4306 
z
" transform="scale(0.015625)"/>
        <path id="DejaVuSans-31" d="M 794 531 
L 1825 531 
L 1825 4091 
L 703 3866 
L 703 4441 
L 1819 4666 
L 2450 4666 
L 2450 531 
L 3481 531 
L 3481 0 
L 794 0 
L 794 531 
z
" transform="scale(0.015625)"/>
       </defs>
       <use xlink:href="#DejaVuSans-6b"/>
       <use xlink:href="#DejaVuSans-66" x="57.910156"/>
       <use xlink:href="#DejaVuSans-5f" x="93.115234"/>
       <use xlink:href="#DejaVuSans-43" x="143.115234"/>
       <use xlink:href="#DejaVuSans-68" x="212.939453"/>
       <use xlink:href="#DejaVuSans-6b" x="276.318359"/>
       <use xlink:href="#DejaVuSans-31" x="334.228516"/>
      </g>
     </g>
    </g>
    <g id="ytick_6">
     <g id="line2d_11">
      <g>
       <use xlink:href="#m0daed7c787" x="109.64" y="542.084373" style="stroke: #000000; stroke-width: 0.8"/>
      </g>
     </g>
     <g id="text_12">
      <!-- k_DSBN -->
      <g transform="translate(43.868125 547.783201) scale(0.15 -0.15)">
       <defs>
        <path id="DejaVuSans-44" d="M 1259 4147 
L 1259 519 
L 2022 519 
Q 2988 519 3436 956 
Q 3884 1394 3884 2338 
Q 3884 3275 3436 3711 
Q 2988 4147 2022 4147 
L 1259 4147 
z
M 628 4666 
L 1925 4666 
Q 3281 4666 3915 4102 
Q 4550 3538 4550 2338 
Q 4550 1131 3912 565 
Q 3275 0 1925 0 
L 628 0 
L 628 4666 
z
" transform="scale(0.015625)"/>
        <path id="DejaVuSans-42" d="M 1259 2228 
L 1259 519 
L 2272 519 
Q 2781 519 3026 730 
Q 3272 941 3272 1375 
Q 3272 1813 3026 2020 
Q 2781 2228 2272 2228 
L 1259 2228 
z
M 1259 4147 
L 1259 2741 
L 2194 2741 
Q 2656 2741 2882 2914 
Q 3109 3088 3109 3444 
Q 3109 3797 2882 3972 
Q 2656 4147 2194 4147 
L 1259 4147 
z
M 628 4666 
L 2241 4666 
Q 2963 4666 3353 4366 
Q 3744 4066 3744 3513 
Q 3744 3084 3544 2831 
Q 3344 2578 2956 2516 
Q 3422 2416 3680 2098 
Q 3938 1781 3938 1306 
Q 3938 681 3513 340 
Q 3088 0 2303 0 
L 628 0 
L 628 4666 
z
" transform="scale(0.015625)"/>
        <path id="DejaVuSans-4e" d="M 628 4666 
L 1478 4666 
L 3547 763 
L 3547 4666 
L 4159 4666 
L 4159 0 
L 3309 0 
L 1241 3903 
L 1241 0 
L 628 0 
L 628 4666 
z
" transform="scale(0.015625)"/>
       </defs>
       <use xlink:href="#DejaVuSans-6b"/>
       <use xlink:href="#DejaVuSans-5f" x="57.910156"/>
       <use xlink:href="#DejaVuSans-44" x="107.910156"/>
       <use xlink:href="#DejaVuSans-53" x="184.912109"/>
       <use xlink:href="#DejaVuSans-42" x="248.388672"/>
       <use xlink:href="#DejaVuSans-4e" x="316.992188"/>
      </g>
     </g>
    </g>
    <g id="ytick_7">
     <g id="line2d_12">
      <g>
       <use xlink:href="#m0daed7c787" x="109.64" y="523.579194" style="stroke: #000000; stroke-width: 0.8"/>
      </g>
     </g>
     <g id="text_13">
      <!-- k_BER -->
      <g transform="translate(56.261875 529.278023) scale(0.15 -0.15)">
       <defs>
        <path id="DejaVuSans-45" d="M 628 4666 
L 3578 4666 
L 3578 4134 
L 1259 4134 
L 1259 2753 
L 3481 2753 
L 3481 2222 
L 1259 2222 
L 1259 531 
L 3634 531 
L 3634 0 
L 628 0 
L 628 4666 
z
" transform="scale(0.015625)"/>
       </defs>
       <use xlink:href="#DejaVuSans-6b"/>
       <use xlink:href="#DejaVuSans-5f" x="57.910156"/>
       <use xlink:href="#DejaVuSans-42" x="107.910156"/>
       <use xlink:href="#DejaVuSans-45" x="176.513672"/>
       <use xlink:href="#DejaVuSans-52" x="239.697266"/>
      </g>
     </g>
    </g>
    <g id="ytick_8">
     <g id="line2d_13">
      <g>
       <use xlink:href="#m0daed7c787" x="109.64" y="505.074016" style="stroke: #000000; stroke-width: 0.8"/>
      </g>
     </g>
     <g id="text_14">
      <!-- k_addN -->
      <g transform="translate(46.994688 510.772844) scale(0.15 -0.15)">
       <use xlink:href="#DejaVuSans-6b"/>
       <use xlink:href="#DejaVuSans-5f" x="57.910156"/>
       <use xlink:href="#DejaVuSans-61" x="107.910156"/>
       <use xlink:href="#DejaVuSans-64" x="169.189453"/>
       <use xlink:href="#DejaVuSans-64" x="232.666016"/>
       <use xlink:href="#DejaVuSans-4e" x="296.142578"/>
      </g>
     </g>
    </g>
    <g id="ytick_9">
     <g id="line2d_14">
      <g>
       <use xlink:href="#m0daed7c787" x="109.64" y="486.568838" style="stroke: #000000; stroke-width: 0.8"/>
      </g>
     </g>
     <g id="text_15">
      <!-- Cdc250 -->
      <g transform="translate(45.764219 492.267666) scale(0.15 -0.15)">
       <defs>
        <path id="DejaVuSans-63" d="M 3122 3366 
L 3122 2828 
Q 2878 2963 2633 3030 
Q 2388 3097 2138 3097 
Q 1578 3097 1268 2742 
Q 959 2388 959 1747 
Q 959 1106 1268 751 
Q 1578 397 2138 397 
Q 2388 397 2633 464 
Q 2878 531 3122 666 
L 3122 134 
Q 2881 22 2623 -34 
Q 2366 -91 2075 -91 
Q 1284 -91 818 406 
Q 353 903 353 1747 
Q 353 2603 823 3093 
Q 1294 3584 2113 3584 
Q 2378 3584 2631 3529 
Q 2884 3475 3122 3366 
z
" transform="scale(0.015625)"/>
        <path id="DejaVuSans-35" d="M 691 4666 
L 3169 4666 
L 3169 4134 
L 1269 4134 
L 1269 2991 
Q 1406 3038 1543 3061 
Q 1681 3084 1819 3084 
Q 2600 3084 3056 2656 
Q 3513 2228 3513 1497 
Q 3513 744 3044 326 
Q 2575 -91 1722 -91 
Q 1428 -91 1123 -41 
Q 819 9 494 109 
L 494 744 
Q 775 591 1075 516 
Q 1375 441 1709 441 
Q 2250 441 2565 725 
Q 2881 1009 2881 1497 
Q 2881 1984 2565 2268 
Q 2250 2553 1709 2553 
Q 1456 2553 1204 2497 
Q 953 2441 691 2322 
L 691 4666 
z
" transform="scale(0.015625)"/>
       </defs>
       <use xlink:href="#DejaVuSans-43"/>
       <use xlink:href="#DejaVuSans-64" x="69.824219"/>
       <use xlink:href="#DejaVuSans-63" x="133.300781"/>
       <use xlink:href="#DejaVuSans-32" x="188.28125"/>
       <use xlink:href="#DejaVuSans-35" x="251.904297"/>
       <use xlink:href="#DejaVuSans-30" x="315.527344"/>
      </g>
     </g>
    </g>
    <g id="ytick_10">
     <g id="line2d_15">
      <g>
       <use xlink:href="#m0daed7c787" x="109.64" y="468.063659" style="stroke: #000000; stroke-width: 0.8"/>
      </g>
     </g>
     <g id="text_16">
      <!-- kd_pChk1 -->
      <g transform="translate(29.198594 473.762488) scale(0.15 -0.15)">
       <use xlink:href="#DejaVuSans-6b"/>
       <use xlink:href="#DejaVuSans-64" x="57.910156"/>
       <use xlink:href="#DejaVuSans-5f" x="121.386719"/>
       <use xlink:href="#DejaVuSans-70" x="171.386719"/>
       <use xlink:href="#DejaVuSans-43" x="234.863281"/>
       <use xlink:href="#DejaVuSans-68" x="304.6875"/>
       <use xlink:href="#DejaVuSans-6b" x="368.066406"/>
       <use xlink:href="#DejaVuSans-31" x="425.976562"/>
      </g>
     </g>
    </g>
    <g id="ytick_11">
     <g id="line2d_16">
      <g>
       <use xlink:href="#m0daed7c787" x="109.64" y="449.558481" style="stroke: #000000; stroke-width: 0.8"/>
      </g>
     </g>
     <g id="text_17">
      <!-- k_Chk1 -->
      <g transform="translate(48.243906 455.257309) scale(0.15 -0.15)">
       <use xlink:href="#DejaVuSans-6b"/>
       <use xlink:href="#DejaVuSans-5f" x="57.910156"/>
       <use xlink:href="#DejaVuSans-43" x="107.910156"/>
       <use xlink:href="#DejaVuSans-68" x="177.734375"/>
       <use xlink:href="#DejaVuSans-6b" x="241.113281"/>
       <use xlink:href="#DejaVuSans-31" x="299.023438"/>
      </g>
     </g>
    </g>
    <g id="ytick_12">
     <g id="line2d_17">
      <g>
       <use xlink:href="#m0daed7c787" x="109.64" y="431.053303" style="stroke: #000000; stroke-width: 0.8"/>
      </g>
     </g>
     <g id="text_18">
      <!-- k_addO -->
      <g transform="translate(46.40875 436.752131) scale(0.15 -0.15)">
       <defs>
        <path id="DejaVuSans-4f" d="M 2522 4238 
Q 1834 4238 1429 3725 
Q 1025 3213 1025 2328 
Q 1025 1447 1429 934 
Q 1834 422 2522 422 
Q 3209 422 3611 934 
Q 4013 1447 4013 2328 
Q 4013 3213 3611 3725 
Q 3209 4238 2522 4238 
z
M 2522 4750 
Q 3503 4750 4090 4092 
Q 4678 3434 4678 2328 
Q 4678 1225 4090 567 
Q 3503 -91 2522 -91 
Q 1538 -91 948 565 
Q 359 1222 359 2328 
Q 359 3434 948 4092 
Q 1538 4750 2522 4750 
z
" transform="scale(0.015625)"/>
       </defs>
       <use xlink:href="#DejaVuSans-6b"/>
       <use xlink:href="#DejaVuSans-5f" x="57.910156"/>
       <use xlink:href="#DejaVuSans-61" x="107.910156"/>
       <use xlink:href="#DejaVuSans-64" x="169.189453"/>
       <use xlink:href="#DejaVuSans-64" x="232.666016"/>
       <use xlink:href="#DejaVuSans-4f" x="296.142578"/>
      </g>
     </g>
    </g>
    <g id="ytick_13">
     <g id="line2d_18">
      <g>
       <use xlink:href="#m0daed7c787" x="109.64" y="412.548124" style="stroke: #000000; stroke-width: 0.8"/>
      </g>
     </g>
     <g id="text_19">
      <!-- k_DSBO -->
      <g transform="translate(43.544688 418.246952) scale(0.15 -0.15)">
       <use xlink:href="#DejaVuSans-6b"/>
       <use xlink:href="#DejaVuSans-5f" x="57.910156"/>
       <use xlink:href="#DejaVuSans-44" x="107.910156"/>
       <use xlink:href="#DejaVuSans-53" x="184.912109"/>
       <use xlink:href="#DejaVuSans-42" x="248.388672"/>
       <use xlink:href="#DejaVuSans-4f" x="315.242188"/>
      </g>
     </g>
    </g>
    <g id="ytick_14">
     <g id="line2d_19">
      <g>
       <use xlink:href="#m0daed7c787" x="109.64" y="394.042946" style="stroke: #000000; stroke-width: 0.8"/>
      </g>
     </g>
     <g id="text_20">
      <!-- K_cdc25 -->
      <g transform="translate(40.197813 399.741774) scale(0.15 -0.15)">
       <defs>
        <path id="DejaVuSans-4b" d="M 628 4666 
L 1259 4666 
L 1259 2694 
L 3353 4666 
L 4166 4666 
L 1850 2491 
L 4331 0 
L 3500 0 
L 1259 2247 
L 1259 0 
L 628 0 
L 628 4666 
z
" transform="scale(0.015625)"/>
       </defs>
       <use xlink:href="#DejaVuSans-4b"/>
       <use xlink:href="#DejaVuSans-5f" x="65.576172"/>
       <use xlink:href="#DejaVuSans-63" x="115.576172"/>
       <use xlink:href="#DejaVuSans-64" x="170.556641"/>
       <use xlink:href="#DejaVuSans-63" x="234.033203"/>
       <use xlink:href="#DejaVuSans-32" x="289.013672"/>
       <use xlink:href="#DejaVuSans-35" x="352.636719"/>
      </g>
     </g>
    </g>
    <g id="ytick_15">
     <g id="line2d_20">
      <g>
       <use xlink:href="#m0daed7c787" x="109.64" y="375.537768" style="stroke: #000000; stroke-width: 0.8"/>
      </g>
     </g>
     <g id="text_21">
      <!-- K_p53 -->
      <g transform="translate(56.693125 381.104174) scale(0.15 -0.15)">
       <defs>
        <path id="DejaVuSans-33" d="M 2597 2516 
Q 3050 2419 3304 2112 
Q 3559 1806 3559 1356 
Q 3559 666 3084 287 
Q 2609 -91 1734 -91 
Q 1441 -91 1130 -33 
Q 819 25 488 141 
L 488 750 
Q 750 597 1062 519 
Q 1375 441 1716 441 
Q 2309 441 2620 675 
Q 2931 909 2931 1356 
Q 2931 1769 2642 2001 
Q 2353 2234 1838 2234 
L 1294 2234 
L 1294 2753 
L 1863 2753 
Q 2328 2753 2575 2939 
Q 2822 3125 2822 3475 
Q 2822 3834 2567 4026 
Q 2313 4219 1838 4219 
Q 1578 4219 1281 4162 
Q 984 4106 628 3988 
L 628 4550 
Q 988 4650 1302 4700 
Q 1616 4750 1894 4750 
Q 2613 4750 3031 4423 
Q 3450 4097 3450 3541 
Q 3450 3153 3228 2886 
Q 3006 2619 2597 2516 
z
" transform="scale(0.015625)"/>
       </defs>
       <use xlink:href="#DejaVuSans-4b"/>
       <use xlink:href="#DejaVuSans-5f" x="65.576172"/>
       <use xlink:href="#DejaVuSans-70" x="115.576172"/>
       <use xlink:href="#DejaVuSans-35" x="179.052734"/>
       <use xlink:href="#DejaVuSans-33" x="242.675781"/>
      </g>
     </g>
    </g>
    <g id="ytick_16">
     <g id="line2d_21">
      <g>
       <use xlink:href="#m0daed7c787" x="109.64" y="357.032589" style="stroke: #000000; stroke-width: 0.8"/>
      </g>
     </g>
     <g id="text_22">
      <!-- k_HR -->
      <g transform="translate(64.750938 362.731417) scale(0.15 -0.15)">
       <defs>
        <path id="DejaVuSans-48" d="M 628 4666 
L 1259 4666 
L 1259 2753 
L 3553 2753 
L 3553 4666 
L 4184 4666 
L 4184 0 
L 3553 0 
L 3553 2222 
L 1259 2222 
L 1259 0 
L 628 0 
L 628 4666 
z
" transform="scale(0.015625)"/>
       </defs>
       <use xlink:href="#DejaVuSans-6b"/>
       <use xlink:href="#DejaVuSans-5f" x="57.910156"/>
       <use xlink:href="#DejaVuSans-48" x="107.910156"/>
       <use xlink:href="#DejaVuSans-52" x="183.105469"/>
      </g>
     </g>
    </g>
    <g id="ytick_17">
     <g id="line2d_22">
      <g>
       <use xlink:href="#m0daed7c787" x="109.64" y="338.527411" style="stroke: #000000; stroke-width: 0.8"/>
      </g>
     </g>
     <g id="text_23">
      <!-- K_add -->
      <g transform="translate(57.065781 344.226239) scale(0.15 -0.15)">
       <use xlink:href="#DejaVuSans-4b"/>
       <use xlink:href="#DejaVuSans-5f" x="65.576172"/>
       <use xlink:href="#DejaVuSans-61" x="115.576172"/>
       <use xlink:href="#DejaVuSans-64" x="176.855469"/>
       <use xlink:href="#DejaVuSans-64" x="240.332031"/>
      </g>
     </g>
    </g>
    <g id="ytick_18">
     <g id="line2d_23">
      <g>
       <use xlink:href="#m0daed7c787" x="109.64" y="320.022232" style="stroke: #000000; stroke-width: 0.8"/>
      </g>
     </g>
     <g id="text_24">
      <!-- pT2 -->
      <g transform="translate(74.411875 325.721061) scale(0.15 -0.15)">
       <use xlink:href="#DejaVuSans-70"/>
       <use xlink:href="#DejaVuSans-54" x="63.476562"/>
       <use xlink:href="#DejaVuSans-32" x="124.560547"/>
      </g>
     </g>
    </g>
    <g id="ytick_19">
     <g id="line2d_24">
      <g>
       <use xlink:href="#m0daed7c787" x="109.64" y="301.517054" style="stroke: #000000; stroke-width: 0.8"/>
      </g>
     </g>
     <g id="text_25">
      <!-- pT -->
      <g transform="translate(83.955625 307.215882) scale(0.15 -0.15)">
       <use xlink:href="#DejaVuSans-70"/>
       <use xlink:href="#DejaVuSans-54" x="63.476562"/>
      </g>
     </g>
    </g>
    <g id="ytick_20">
     <g id="line2d_25">
      <g>
       <use xlink:href="#m0daed7c787" x="109.64" y="283.011876" style="stroke: #000000; stroke-width: 0.8"/>
      </g>
     </g>
     <g id="text_26">
      <!-- k_cdc25 -->
      <g transform="translate(41.348594 288.710704) scale(0.15 -0.15)">
       <use xlink:href="#DejaVuSans-6b"/>
       <use xlink:href="#DejaVuSans-5f" x="57.910156"/>
       <use xlink:href="#DejaVuSans-63" x="107.910156"/>
       <use xlink:href="#DejaVuSans-64" x="162.890625"/>
       <use xlink:href="#DejaVuSans-63" x="226.367188"/>
       <use xlink:href="#DejaVuSans-32" x="281.347656"/>
       <use xlink:href="#DejaVuSans-35" x="344.970703"/>
      </g>
     </g>
    </g>
    <g id="ytick_21">
     <g id="line2d_26">
      <g>
       <use xlink:href="#m0daed7c787" x="109.64" y="264.506697" style="stroke: #000000; stroke-width: 0.8"/>
      </g>
     </g>
     <g id="text_27">
      <!-- k_MGMT -->
      <g transform="translate(39.785313 270.205525) scale(0.15 -0.15)">
       <use xlink:href="#DejaVuSans-6b"/>
       <use xlink:href="#DejaVuSans-5f" x="57.910156"/>
       <use xlink:href="#DejaVuSans-4d" x="107.910156"/>
       <use xlink:href="#DejaVuSans-47" x="194.189453"/>
       <use xlink:href="#DejaVuSans-4d" x="271.679688"/>
       <use xlink:href="#DejaVuSans-54" x="357.958984"/>
      </g>
     </g>
    </g>
    <g id="ytick_22">
     <g id="line2d_27">
      <g>
       <use xlink:href="#m0daed7c787" x="109.64" y="246.001519" style="stroke: #000000; stroke-width: 0.8"/>
      </g>
     </g>
     <g id="text_28">
      <!-- k_CyA -->
      <g transform="translate(56.840781 251.700347) scale(0.15 -0.15)">
       <defs>
        <path id="DejaVuSans-79" d="M 2059 -325 
Q 1816 -950 1584 -1140 
Q 1353 -1331 966 -1331 
L 506 -1331 
L 506 -850 
L 844 -850 
Q 1081 -850 1212 -737 
Q 1344 -625 1503 -206 
L 1606 56 
L 191 3500 
L 800 3500 
L 1894 763 
L 2988 3500 
L 3597 3500 
L 2059 -325 
z
" transform="scale(0.015625)"/>
       </defs>
       <use xlink:href="#DejaVuSans-6b"/>
       <use xlink:href="#DejaVuSans-5f" x="57.910156"/>
       <use xlink:href="#DejaVuSans-43" x="107.910156"/>
       <use xlink:href="#DejaVuSans-79" x="177.734375"/>
       <use xlink:href="#DejaVuSans-41" x="236.914062"/>
      </g>
     </g>
    </g>
    <g id="ytick_23">
     <g id="line2d_28">
      <g>
       <use xlink:href="#m0daed7c787" x="109.64" y="227.496341" style="stroke: #000000; stroke-width: 0.8"/>
      </g>
     </g>
     <g id="text_29">
      <!-- kp_ser46 -->
      <g transform="translate(34.63375 233.195169) scale(0.15 -0.15)">
       <defs>
        <path id="DejaVuSans-73" d="M 2834 3397 
L 2834 2853 
Q 2591 2978 2328 3040 
Q 2066 3103 1784 3103 
Q 1356 3103 1142 2972 
Q 928 2841 928 2578 
Q 928 2378 1081 2264 
Q 1234 2150 1697 2047 
L 1894 2003 
Q 2506 1872 2764 1633 
Q 3022 1394 3022 966 
Q 3022 478 2636 193 
Q 2250 -91 1575 -91 
Q 1294 -91 989 -36 
Q 684 19 347 128 
L 347 722 
Q 666 556 975 473 
Q 1284 391 1588 391 
Q 1994 391 2212 530 
Q 2431 669 2431 922 
Q 2431 1156 2273 1281 
Q 2116 1406 1581 1522 
L 1381 1569 
Q 847 1681 609 1914 
Q 372 2147 372 2553 
Q 372 3047 722 3315 
Q 1072 3584 1716 3584 
Q 2034 3584 2315 3537 
Q 2597 3491 2834 3397 
z
" transform="scale(0.015625)"/>
        <path id="DejaVuSans-72" d="M 2631 2963 
Q 2534 3019 2420 3045 
Q 2306 3072 2169 3072 
Q 1681 3072 1420 2755 
Q 1159 2438 1159 1844 
L 1159 0 
L 581 0 
L 581 3500 
L 1159 3500 
L 1159 2956 
Q 1341 3275 1631 3429 
Q 1922 3584 2338 3584 
Q 2397 3584 2469 3576 
Q 2541 3569 2628 3553 
L 2631 2963 
z
" transform="scale(0.015625)"/>
       </defs>
       <use xlink:href="#DejaVuSans-6b"/>
       <use xlink:href="#DejaVuSans-70" x="57.910156"/>
       <use xlink:href="#DejaVuSans-5f" x="121.386719"/>
       <use xlink:href="#DejaVuSans-73" x="171.386719"/>
       <use xlink:href="#DejaVuSans-65" x="223.486328"/>
       <use xlink:href="#DejaVuSans-72" x="285.009766"/>
       <use xlink:href="#DejaVuSans-34" x="326.123047"/>
       <use xlink:href="#DejaVuSans-36" x="389.746094"/>
      </g>
     </g>
    </g>
    <g id="ytick_24">
     <g id="line2d_29">
      <g>
       <use xlink:href="#m0daed7c787" x="109.64" y="208.991162" style="stroke: #000000; stroke-width: 0.8"/>
      </g>
     </g>
     <g id="text_30">
      <!-- kd_pATR -->
      <g transform="translate(38.725938 214.68999) scale(0.15 -0.15)">
       <use xlink:href="#DejaVuSans-6b"/>
       <use xlink:href="#DejaVuSans-64" x="57.910156"/>
       <use xlink:href="#DejaVuSans-5f" x="121.386719"/>
       <use xlink:href="#DejaVuSans-70" x="171.386719"/>
       <use xlink:href="#DejaVuSans-41" x="234.863281"/>
       <use xlink:href="#DejaVuSans-54" x="295.521484"/>
       <use xlink:href="#DejaVuSans-52" x="356.605469"/>
      </g>
     </g>
    </g>
    <g id="ytick_25">
     <g id="line2d_30">
      <g>
       <use xlink:href="#m0daed7c787" x="109.64" y="190.485984" style="stroke: #000000; stroke-width: 0.8"/>
      </g>
     </g>
     <g id="text_31">
      <!-- k_p53 -->
      <g transform="translate(57.843906 196.184812) scale(0.15 -0.15)">
       <use xlink:href="#DejaVuSans-6b"/>
       <use xlink:href="#DejaVuSans-5f" x="57.910156"/>
       <use xlink:href="#DejaVuSans-70" x="107.910156"/>
       <use xlink:href="#DejaVuSans-35" x="171.386719"/>
       <use xlink:href="#DejaVuSans-33" x="235.009766"/>
      </g>
     </g>
    </g>
    <g id="ytick_26">
     <g id="line2d_31">
      <g>
       <use xlink:href="#m0daed7c787" x="109.64" y="171.980806" style="stroke: #000000; stroke-width: 0.8"/>
      </g>
     </g>
     <g id="text_32">
      <!-- k_apop -->
      <g transform="translate(49.038438 177.679634) scale(0.15 -0.15)">
       <defs>
        <path id="DejaVuSans-6f" d="M 1959 3097 
Q 1497 3097 1228 2736 
Q 959 2375 959 1747 
Q 959 1119 1226 758 
Q 1494 397 1959 397 
Q 2419 397 2687 759 
Q 2956 1122 2956 1747 
Q 2956 2369 2687 2733 
Q 2419 3097 1959 3097 
z
M 1959 3584 
Q 2709 3584 3137 3096 
Q 3566 2609 3566 1747 
Q 3566 888 3137 398 
Q 2709 -91 1959 -91 
Q 1206 -91 779 398 
Q 353 888 353 1747 
Q 353 2609 779 3096 
Q 1206 3584 1959 3584 
z
" transform="scale(0.015625)"/>
       </defs>
       <use xlink:href="#DejaVuSans-6b"/>
       <use xlink:href="#DejaVuSans-5f" x="57.910156"/>
       <use xlink:href="#DejaVuSans-61" x="107.910156"/>
       <use xlink:href="#DejaVuSans-70" x="169.189453"/>
       <use xlink:href="#DejaVuSans-6f" x="232.666016"/>
       <use xlink:href="#DejaVuSans-70" x="293.847656"/>
      </g>
     </g>
    </g>
    <g id="ytick_27">
     <g id="line2d_32">
      <g>
       <use xlink:href="#m0daed7c787" x="109.64" y="153.475627" style="stroke: #000000; stroke-width: 0.8"/>
      </g>
     </g>
     <g id="text_33">
      <!-- K_ATR -->
      <g transform="translate(56.620469 158.965862) scale(0.15 -0.15)">
       <use xlink:href="#DejaVuSans-4b"/>
       <use xlink:href="#DejaVuSans-5f" x="65.576172"/>
       <use xlink:href="#DejaVuSans-41" x="115.576172"/>
       <use xlink:href="#DejaVuSans-54" x="176.234375"/>
       <use xlink:href="#DejaVuSans-52" x="237.318359"/>
      </g>
     </g>
    </g>
    <g id="ytick_28">
     <g id="line2d_33">
      <g>
       <use xlink:href="#m0daed7c787" x="109.64" y="134.970449" style="stroke: #000000; stroke-width: 0.8"/>
      </g>
     </g>
     <g id="text_34">
      <!-- k_ATR -->
      <g transform="translate(57.77125 140.669277) scale(0.15 -0.15)">
       <use xlink:href="#DejaVuSans-6b"/>
       <use xlink:href="#DejaVuSans-5f" x="57.910156"/>
       <use xlink:href="#DejaVuSans-41" x="107.910156"/>
       <use xlink:href="#DejaVuSans-54" x="168.568359"/>
       <use xlink:href="#DejaVuSans-52" x="229.652344"/>
      </g>
     </g>
    </g>
    <g id="ytick_29">
     <g id="line2d_34">
      <g>
       <use xlink:href="#m0daed7c787" x="109.64" y="116.46527" style="stroke: #000000; stroke-width: 0.8"/>
      </g>
     </g>
     <g id="text_35">
      <!-- sness -->
      <g transform="translate(60.461875 122.164099) scale(0.15 -0.15)">
       <defs>
        <path id="DejaVuSans-6e" d="M 3513 2113 
L 3513 0 
L 2938 0 
L 2938 2094 
Q 2938 2591 2744 2837 
Q 2550 3084 2163 3084 
Q 1697 3084 1428 2787 
Q 1159 2491 1159 1978 
L 1159 0 
L 581 0 
L 581 3500 
L 1159 3500 
L 1159 2956 
Q 1366 3272 1645 3428 
Q 1925 3584 2291 3584 
Q 2894 3584 3203 3211 
Q 3513 2838 3513 2113 
z
" transform="scale(0.015625)"/>
       </defs>
       <use xlink:href="#DejaVuSans-73"/>
       <use xlink:href="#DejaVuSans-6e" x="52.099609"/>
       <use xlink:href="#DejaVuSans-65" x="115.478516"/>
       <use xlink:href="#DejaVuSans-73" x="177.001953"/>
       <use xlink:href="#DejaVuSans-73" x="229.101562"/>
      </g>
     </g>
    </g>
    <g id="ytick_30">
     <g id="line2d_35">
      <g>
       <use xlink:href="#m0daed7c787" x="109.64" y="97.960092" style="stroke: #000000; stroke-width: 0.8"/>
      </g>
     </g>
     <g id="text_36">
      <!-- kf_p53 -->
      <g transform="translate(52.563438 103.65892) scale(0.15 -0.15)">
       <use xlink:href="#DejaVuSans-6b"/>
       <use xlink:href="#DejaVuSans-66" x="57.910156"/>
       <use xlink:href="#DejaVuSans-5f" x="93.115234"/>
       <use xlink:href="#DejaVuSans-70" x="143.115234"/>
       <use xlink:href="#DejaVuSans-35" x="206.591797"/>
       <use xlink:href="#DejaVuSans-33" x="270.214844"/>
      </g>
     </g>
    </g>
    <g id="ytick_31">
     <g id="line2d_36">
      <g>
       <use xlink:href="#m0daed7c787" x="109.64" y="79.454914" style="stroke: #000000; stroke-width: 0.8"/>
      </g>
     </g>
     <g id="text_37">
      <!-- tED50 -->
      <g transform="translate(56.643906 85.153742) scale(0.15 -0.15)">
       <use xlink:href="#DejaVuSans-74"/>
       <use xlink:href="#DejaVuSans-45" x="39.208984"/>
       <use xlink:href="#DejaVuSans-44" x="102.392578"/>
       <use xlink:href="#DejaVuSans-35" x="179.394531"/>
       <use xlink:href="#DejaVuSans-30" x="243.017578"/>
      </g>
     </g>
    </g>
    <g id="ytick_32">
     <g id="line2d_37">
      <g>
       <use xlink:href="#m0daed7c787" x="109.64" y="60.949735" style="stroke: #000000; stroke-width: 0.8"/>
      </g>
     </g>
     <g id="text_38">
      <!-- upAsy -->
      <g transform="translate(56.657969 66.648563) scale(0.15 -0.15)">
       <use xlink:href="#DejaVuSans-75"/>
       <use xlink:href="#DejaVuSans-70" x="63.378906"/>
       <use xlink:href="#DejaVuSans-41" x="126.855469"/>
       <use xlink:href="#DejaVuSans-73" x="195.263672"/>
       <use xlink:href="#DejaVuSans-79" x="247.363281"/>
      </g>
     </g>
    </g>
    <g id="text_39">
     <!-- Parameters -->
     <g transform="translate(22.079063 390.705781) rotate(-90) scale(0.15 -0.15)">
      <defs>
       <path id="DejaVuSans-50" d="M 1259 4147 
L 1259 2394 
L 2053 2394 
Q 2494 2394 2734 2622 
Q 2975 2850 2975 3272 
Q 2975 3691 2734 3919 
Q 2494 4147 2053 4147 
L 1259 4147 
z
M 628 4666 
L 2053 4666 
Q 2838 4666 3239 4311 
Q 3641 3956 3641 3272 
Q 3641 2581 3239 2228 
Q 2838 1875 2053 1875 
L 1259 1875 
L 1259 0 
L 628 0 
L 628 4666 
z
" transform="scale(0.015625)"/>
      </defs>
      <use xlink:href="#DejaVuSans-50"/>
      <use xlink:href="#DejaVuSans-61" x="55.802734"/>
      <use xlink:href="#DejaVuSans-72" x="117.082031"/>
      <use xlink:href="#DejaVuSans-61" x="158.195312"/>
      <use xlink:href="#DejaVuSans-6d" x="219.474609"/>
      <use xlink:href="#DejaVuSans-65" x="316.886719"/>
      <use xlink:href="#DejaVuSans-74" x="378.410156"/>
      <use xlink:href="#DejaVuSans-65" x="417.619141"/>
      <use xlink:href="#DejaVuSans-72" x="479.142578"/>
      <use xlink:href="#DejaVuSans-73" x="520.255859"/>
     </g>
    </g>
   </g>
   <g id="patch_35">
    <path d="M 109.64 669.4 
L 109.64 26.16 
" style="fill: none; stroke: #000000; stroke-width: 0.8; stroke-linejoin: miter; stroke-linecap: square"/>
   </g>
   <g id="patch_36">
    <path d="M 109.64 669.4 
L 503.434627 669.4 
" style="fill: none; stroke: #000000; stroke-width: 0.8; stroke-linejoin: miter; stroke-linecap: square"/>
   </g>
   <g id="text_40">
    <!-- MGMT- -->
    <g transform="translate(286.252626 20.16) scale(0.12 -0.12)">
     <defs>
      <path id="DejaVuSans-2d" d="M 313 2009 
L 1997 2009 
L 1997 1497 
L 313 1497 
L 313 2009 
z
" transform="scale(0.015625)"/>
     </defs>
     <use xlink:href="#DejaVuSans-4d"/>
     <use xlink:href="#DejaVuSans-47" x="86.279297"/>
     <use xlink:href="#DejaVuSans-4d" x="163.769531"/>
     <use xlink:href="#DejaVuSans-54" x="250.048828"/>
     <use xlink:href="#DejaVuSans-2d" x="302.007812"/>
    </g>
   </g>
  </g>
  <g id="axes_2">
   <g id="patch_37">
    <path d="M 519.004627 669.4 
L 912.799253 669.4 
L 912.799253 26.16 
L 519.004627 26.16 
z
" style="fill: #ffffff"/>
   </g>
   <g id="patch_38">
    <path d="M 519.004627 640.161818 
L 519.168385 640.161818 
L 519.168385 629.058711 
L 519.004627 629.058711 
z
" clip-path="url(#p17891a5181)" style="fill: #ee6677"/>
   </g>
   <g id="patch_39">
    <path d="M 519.004627 621.65664 
L 526.652234 621.65664 
L 526.652234 610.553533 
L 519.004627 610.553533 
z
" clip-path="url(#p17891a5181)" style="fill: #ee6677"/>
   </g>
   <g id="patch_40">
    <path d="M 519.004627 603.151461 
L 520.025971 603.151461 
L 520.025971 592.048354 
L 519.004627 592.048354 
z
" clip-path="url(#p17891a5181)" style="fill: #ee6677"/>
   </g>
   <g id="patch_41">
    <path d="M 519.004627 584.646283 
L 519.936665 584.646283 
L 519.936665 573.543176 
L 519.004627 573.543176 
z
" clip-path="url(#p17891a5181)" style="fill: #ee6677"/>
   </g>
   <g id="patch_42">
    <path d="M 519.004627 566.141105 
L 520.792206 566.141105 
L 520.792206 555.037998 
L 519.004627 555.037998 
z
" clip-path="url(#p17891a5181)" style="fill: #ee6677"/>
   </g>
   <g id="patch_43">
    <path d="M 519.004627 547.635926 
L 520.876056 547.635926 
L 520.876056 536.532819 
L 519.004627 536.532819 
z
" clip-path="url(#p17891a5181)" style="fill: #ee6677"/>
   </g>
   <g id="patch_44">
    <path d="M 519.004627 529.130748 
L 549.903898 529.130748 
L 549.903898 518.027641 
L 519.004627 518.027641 
z
" clip-path="url(#p17891a5181)" style="fill: #ee6677"/>
   </g>
   <g id="patch_45">
    <path d="M 519.004627 510.62557 
L 521.278193 510.62557 
L 521.278193 499.522463 
L 519.004627 499.522463 
z
" clip-path="url(#p17891a5181)" style="fill: #ee6677"/>
   </g>
   <g id="patch_46">
    <path d="M 519.004627 492.120391 
L 617.081014 492.120391 
L 617.081014 481.017284 
L 519.004627 481.017284 
z
" clip-path="url(#p17891a5181)" style="fill: #ee6677"/>
   </g>
   <g id="patch_47">
    <path d="M 519.004627 473.615213 
L 526.813309 473.615213 
L 526.813309 462.512106 
L 519.004627 462.512106 
z
" clip-path="url(#p17891a5181)" style="fill: #ee6677"/>
   </g>
   <g id="patch_48">
    <path d="M 519.004627 455.110035 
L 529.584021 455.110035 
L 529.584021 444.006928 
L 519.004627 444.006928 
z
" clip-path="url(#p17891a5181)" style="fill: #ee6677"/>
   </g>
   <g id="patch_49">
    <path d="M 519.004627 436.604856 
L 531.112268 436.604856 
L 531.112268 425.501749 
L 519.004627 425.501749 
z
" clip-path="url(#p17891a5181)" style="fill: #ee6677"/>
   </g>
   <g id="patch_50">
    <path d="M 519.004627 418.099678 
L 522.929808 418.099678 
L 522.929808 406.996571 
L 519.004627 406.996571 
z
" clip-path="url(#p17891a5181)" style="fill: #ee6677"/>
   </g>
   <g id="patch_51">
    <path d="M 519.004627 399.594499 
L 526.026127 399.594499 
L 526.026127 388.491392 
L 519.004627 388.491392 
z
" clip-path="url(#p17891a5181)" style="fill: #ee6677"/>
   </g>
   <g id="patch_52">
    <path d="M 519.004627 381.089321 
L 527.796441 381.089321 
L 527.796441 369.986214 
L 519.004627 369.986214 
z
" clip-path="url(#p17891a5181)" style="fill: #ee6677"/>
   </g>
   <g id="patch_53">
    <path d="M 519.004627 362.584143 
L 732.767182 362.584143 
L 732.767182 351.481036 
L 519.004627 351.481036 
z
" clip-path="url(#p17891a5181)" style="fill: #ee6677"/>
   </g>
   <g id="patch_54">
    <path d="M 519.004627 344.078964 
L 548.45337 344.078964 
L 548.45337 332.975857 
L 519.004627 332.975857 
z
" clip-path="url(#p17891a5181)" style="fill: #ee6677"/>
   </g>
   <g id="patch_55">
    <path d="M 519.004627 325.573786 
L 810.033631 325.573786 
L 810.033631 314.470679 
L 519.004627 314.470679 
z
" clip-path="url(#p17891a5181)" style="fill: #ee6677"/>
   </g>
   <g id="patch_56">
    <path d="M 519.004627 307.068608 
L 811.674514 307.068608 
L 811.674514 295.965501 
L 519.004627 295.965501 
z
" clip-path="url(#p17891a5181)" style="fill: #ee6677"/>
   </g>
   <g id="patch_57">
    <path d="M 519.004627 288.563429 
L 528.627729 288.563429 
L 528.627729 277.460322 
L 519.004627 277.460322 
z
" clip-path="url(#p17891a5181)" style="fill: #ee6677"/>
   </g>
   <g id="patch_58">
    <path d="M 519.004627 270.058251 
L 538.092397 270.058251 
L 538.092397 258.955144 
L 519.004627 258.955144 
z
" clip-path="url(#p17891a5181)" style="fill: #ee6677"/>
   </g>
   <g id="patch_59">
    <path d="M 519.004627 251.553072 
L 548.738312 251.553072 
L 548.738312 240.449965 
L 519.004627 240.449965 
z
" clip-path="url(#p17891a5181)" style="fill: #ee6677"/>
   </g>
   <g id="patch_60">
    <path d="M 519.004627 233.047894 
L 571.557538 233.047894 
L 571.557538 221.944787 
L 519.004627 221.944787 
z
" clip-path="url(#p17891a5181)" style="fill: #ee6677"/>
   </g>
   <g id="patch_61">
    <path d="M 519.004627 214.542716 
L 619.696937 214.542716 
L 619.696937 203.439609 
L 519.004627 203.439609 
z
" clip-path="url(#p17891a5181)" style="fill: #ee6677"/>
   </g>
   <g id="patch_62">
    <path d="M 519.004627 196.037537 
L 586.682381 196.037537 
L 586.682381 184.93443 
L 519.004627 184.93443 
z
" clip-path="url(#p17891a5181)" style="fill: #ee6677"/>
   </g>
   <g id="patch_63">
    <path d="M 519.004627 177.532359 
L 585.045046 177.532359 
L 585.045046 166.429252 
L 519.004627 166.429252 
z
" clip-path="url(#p17891a5181)" style="fill: #ee6677"/>
   </g>
   <g id="patch_64">
    <path d="M 519.004627 159.027181 
L 640.506368 159.027181 
L 640.506368 147.924074 
L 519.004627 147.924074 
z
" clip-path="url(#p17891a5181)" style="fill: #ee6677"/>
   </g>
   <g id="patch_65">
    <path d="M 519.004627 140.522002 
L 686.923945 140.522002 
L 686.923945 129.418895 
L 519.004627 129.418895 
z
" clip-path="url(#p17891a5181)" style="fill: #ee6677"/>
   </g>
   <g id="patch_66">
    <path d="M 519.004627 122.016824 
L 791.651131 122.016824 
L 791.651131 110.913717 
L 519.004627 110.913717 
z
" clip-path="url(#p17891a5181)" style="fill: #ee6677"/>
   </g>
   <g id="patch_67">
    <path d="M 519.004627 103.511646 
L 814.886607 103.511646 
L 814.886607 92.408539 
L 519.004627 92.408539 
z
" clip-path="url(#p17891a5181)" style="fill: #ee6677"/>
   </g>
   <g id="patch_68">
    <path d="M 519.004627 85.006467 
L 894.047128 85.006467 
L 894.047128 73.90336 
L 519.004627 73.90336 
z
" clip-path="url(#p17891a5181)" style="fill: #ee6677"/>
   </g>
   <g id="patch_69">
    <path d="M 519.004627 66.501289 
L 890.367185 66.501289 
L 890.367185 55.398182 
L 519.004627 55.398182 
z
" clip-path="url(#p17891a5181)" style="fill: #ee6677"/>
   </g>
   <g id="matplotlib.axis_3">
    <g id="xtick_6">
     <g id="line2d_38">
      <g>
       <use xlink:href="#m1f1fab585d" x="519.004627" y="669.4" style="stroke: #000000; stroke-width: 0.8"/>
      </g>
     </g>
     <g id="text_41">
      <!-- 0 -->
      <g transform="translate(514.232752 687.797656) scale(0.15 -0.15)">
       <use xlink:href="#DejaVuSans-30"/>
      </g>
     </g>
    </g>
    <g id="xtick_7">
     <g id="line2d_39">
      <g>
       <use xlink:href="#m1f1fab585d" x="582.358083" y="669.4" style="stroke: #000000; stroke-width: 0.8"/>
      </g>
     </g>
     <g id="text_42">
      <!-- 2000 -->
      <g transform="translate(563.270583 687.797656) scale(0.15 -0.15)">
       <use xlink:href="#DejaVuSans-32"/>
       <use xlink:href="#DejaVuSans-30" x="63.623047"/>
       <use xlink:href="#DejaVuSans-30" x="127.246094"/>
       <use xlink:href="#DejaVuSans-30" x="190.869141"/>
      </g>
     </g>
    </g>
    <g id="xtick_8">
     <g id="line2d_40">
      <g>
       <use xlink:href="#m1f1fab585d" x="645.711539" y="669.4" style="stroke: #000000; stroke-width: 0.8"/>
      </g>
     </g>
     <g id="text_43">
      <!-- 4000 -->
      <g transform="translate(626.624039 687.797656) scale(0.15 -0.15)">
       <use xlink:href="#DejaVuSans-34"/>
       <use xlink:href="#DejaVuSans-30" x="63.623047"/>
       <use xlink:href="#DejaVuSans-30" x="127.246094"/>
       <use xlink:href="#DejaVuSans-30" x="190.869141"/>
      </g>
     </g>
    </g>
    <g id="xtick_9">
     <g id="line2d_41">
      <g>
       <use xlink:href="#m1f1fab585d" x="709.064995" y="669.4" style="stroke: #000000; stroke-width: 0.8"/>
      </g>
     </g>
     <g id="text_44">
      <!-- 6000 -->
      <g transform="translate(689.977495 687.797656) scale(0.15 -0.15)">
       <use xlink:href="#DejaVuSans-36"/>
       <use xlink:href="#DejaVuSans-30" x="63.623047"/>
       <use xlink:href="#DejaVuSans-30" x="127.246094"/>
       <use xlink:href="#DejaVuSans-30" x="190.869141"/>
      </g>
     </g>
    </g>
    <g id="xtick_10">
     <g id="line2d_42">
      <g>
       <use xlink:href="#m1f1fab585d" x="772.418451" y="669.4" style="stroke: #000000; stroke-width: 0.8"/>
      </g>
     </g>
     <g id="text_45">
      <!-- 8000 -->
      <g transform="translate(753.330951 687.797656) scale(0.15 -0.15)">
       <use xlink:href="#DejaVuSans-38"/>
       <use xlink:href="#DejaVuSans-30" x="63.623047"/>
       <use xlink:href="#DejaVuSans-30" x="127.246094"/>
       <use xlink:href="#DejaVuSans-30" x="190.869141"/>
      </g>
     </g>
    </g>
    <g id="xtick_11">
     <g id="line2d_43">
      <g>
       <use xlink:href="#m1f1fab585d" x="835.771907" y="669.4" style="stroke: #000000; stroke-width: 0.8"/>
      </g>
     </g>
     <g id="text_46">
      <!-- 10000 -->
      <g transform="translate(811.912532 687.797656) scale(0.15 -0.15)">
       <use xlink:href="#DejaVuSans-31"/>
       <use xlink:href="#DejaVuSans-30" x="63.623047"/>
       <use xlink:href="#DejaVuSans-30" x="127.246094"/>
       <use xlink:href="#DejaVuSans-30" x="190.869141"/>
       <use xlink:href="#DejaVuSans-30" x="254.492188"/>
      </g>
     </g>
    </g>
    <g id="xtick_12">
     <g id="line2d_44">
      <g>
       <use xlink:href="#m1f1fab585d" x="899.125363" y="669.4" style="stroke: #000000; stroke-width: 0.8"/>
      </g>
     </g>
     <g id="text_47">
      <!-- 12000 -->
      <g transform="translate(875.265988 687.797656) scale(0.15 -0.15)">
       <use xlink:href="#DejaVuSans-31"/>
       <use xlink:href="#DejaVuSans-32" x="63.623047"/>
       <use xlink:href="#DejaVuSans-30" x="127.246094"/>
       <use xlink:href="#DejaVuSans-30" x="190.869141"/>
       <use xlink:href="#DejaVuSans-30" x="254.492188"/>
      </g>
     </g>
    </g>
    <g id="text_48">
     <!-- Shap Value -->
     <g transform="translate(674.049596 706.314844) scale(0.15 -0.15)">
      <use xlink:href="#DejaVuSans-53"/>
      <use xlink:href="#DejaVuSans-68" x="63.476562"/>
      <use xlink:href="#DejaVuSans-61" x="126.855469"/>
      <use xlink:href="#DejaVuSans-70" x="188.134766"/>
      <use xlink:href="#DejaVuSans-20" x="251.611328"/>
      <use xlink:href="#DejaVuSans-56" x="283.398438"/>
      <use xlink:href="#DejaVuSans-61" x="344.056641"/>
      <use xlink:href="#DejaVuSans-6c" x="405.335938"/>
      <use xlink:href="#DejaVuSans-75" x="433.119141"/>
      <use xlink:href="#DejaVuSans-65" x="496.498047"/>
     </g>
    </g>
   </g>
   <g id="matplotlib.axis_4">
    <g id="ytick_33">
     <g id="line2d_45">
      <g>
       <use xlink:href="#m0daed7c787" x="519.004627" y="634.610265" style="stroke: #000000; stroke-width: 0.8"/>
      </g>
     </g>
    </g>
    <g id="ytick_34">
     <g id="line2d_46">
      <g>
       <use xlink:href="#m0daed7c787" x="519.004627" y="616.105086" style="stroke: #000000; stroke-width: 0.8"/>
      </g>
     </g>
    </g>
    <g id="ytick_35">
     <g id="line2d_47">
      <g>
       <use xlink:href="#m0daed7c787" x="519.004627" y="597.599908" style="stroke: #000000; stroke-width: 0.8"/>
      </g>
     </g>
    </g>
    <g id="ytick_36">
     <g id="line2d_48">
      <g>
       <use xlink:href="#m0daed7c787" x="519.004627" y="579.09473" style="stroke: #000000; stroke-width: 0.8"/>
      </g>
     </g>
    </g>
    <g id="ytick_37">
     <g id="line2d_49">
      <g>
       <use xlink:href="#m0daed7c787" x="519.004627" y="560.589551" style="stroke: #000000; stroke-width: 0.8"/>
      </g>
     </g>
    </g>
    <g id="ytick_38">
     <g id="line2d_50">
      <g>
       <use xlink:href="#m0daed7c787" x="519.004627" y="542.084373" style="stroke: #000000; stroke-width: 0.8"/>
      </g>
     </g>
    </g>
    <g id="ytick_39">
     <g id="line2d_51">
      <g>
       <use xlink:href="#m0daed7c787" x="519.004627" y="523.579194" style="stroke: #000000; stroke-width: 0.8"/>
      </g>
     </g>
    </g>
    <g id="ytick_40">
     <g id="line2d_52">
      <g>
       <use xlink:href="#m0daed7c787" x="519.004627" y="505.074016" style="stroke: #000000; stroke-width: 0.8"/>
      </g>
     </g>
    </g>
    <g id="ytick_41">
     <g id="line2d_53">
      <g>
       <use xlink:href="#m0daed7c787" x="519.004627" y="486.568838" style="stroke: #000000; stroke-width: 0.8"/>
      </g>
     </g>
    </g>
    <g id="ytick_42">
     <g id="line2d_54">
      <g>
       <use xlink:href="#m0daed7c787" x="519.004627" y="468.063659" style="stroke: #000000; stroke-width: 0.8"/>
      </g>
     </g>
    </g>
    <g id="ytick_43">
     <g id="line2d_55">
      <g>
       <use xlink:href="#m0daed7c787" x="519.004627" y="449.558481" style="stroke: #000000; stroke-width: 0.8"/>
      </g>
     </g>
    </g>
    <g id="ytick_44">
     <g id="line2d_56">
      <g>
       <use xlink:href="#m0daed7c787" x="519.004627" y="431.053303" style="stroke: #000000; stroke-width: 0.8"/>
      </g>
     </g>
    </g>
    <g id="ytick_45">
     <g id="line2d_57">
      <g>
       <use xlink:href="#m0daed7c787" x="519.004627" y="412.548124" style="stroke: #000000; stroke-width: 0.8"/>
      </g>
     </g>
    </g>
    <g id="ytick_46">
     <g id="line2d_58">
      <g>
       <use xlink:href="#m0daed7c787" x="519.004627" y="394.042946" style="stroke: #000000; stroke-width: 0.8"/>
      </g>
     </g>
    </g>
    <g id="ytick_47">
     <g id="line2d_59">
      <g>
       <use xlink:href="#m0daed7c787" x="519.004627" y="375.537768" style="stroke: #000000; stroke-width: 0.8"/>
      </g>
     </g>
    </g>
    <g id="ytick_48">
     <g id="line2d_60">
      <g>
       <use xlink:href="#m0daed7c787" x="519.004627" y="357.032589" style="stroke: #000000; stroke-width: 0.8"/>
      </g>
     </g>
    </g>
    <g id="ytick_49">
     <g id="line2d_61">
      <g>
       <use xlink:href="#m0daed7c787" x="519.004627" y="338.527411" style="stroke: #000000; stroke-width: 0.8"/>
      </g>
     </g>
    </g>
    <g id="ytick_50">
     <g id="line2d_62">
      <g>
       <use xlink:href="#m0daed7c787" x="519.004627" y="320.022232" style="stroke: #000000; stroke-width: 0.8"/>
      </g>
     </g>
    </g>
    <g id="ytick_51">
     <g id="line2d_63">
      <g>
       <use xlink:href="#m0daed7c787" x="519.004627" y="301.517054" style="stroke: #000000; stroke-width: 0.8"/>
      </g>
     </g>
    </g>
    <g id="ytick_52">
     <g id="line2d_64">
      <g>
       <use xlink:href="#m0daed7c787" x="519.004627" y="283.011876" style="stroke: #000000; stroke-width: 0.8"/>
      </g>
     </g>
    </g>
    <g id="ytick_53">
     <g id="line2d_65">
      <g>
       <use xlink:href="#m0daed7c787" x="519.004627" y="264.506697" style="stroke: #000000; stroke-width: 0.8"/>
      </g>
     </g>
    </g>
    <g id="ytick_54">
     <g id="line2d_66">
      <g>
       <use xlink:href="#m0daed7c787" x="519.004627" y="246.001519" style="stroke: #000000; stroke-width: 0.8"/>
      </g>
     </g>
    </g>
    <g id="ytick_55">
     <g id="line2d_67">
      <g>
       <use xlink:href="#m0daed7c787" x="519.004627" y="227.496341" style="stroke: #000000; stroke-width: 0.8"/>
      </g>
     </g>
    </g>
    <g id="ytick_56">
     <g id="line2d_68">
      <g>
       <use xlink:href="#m0daed7c787" x="519.004627" y="208.991162" style="stroke: #000000; stroke-width: 0.8"/>
      </g>
     </g>
    </g>
    <g id="ytick_57">
     <g id="line2d_69">
      <g>
       <use xlink:href="#m0daed7c787" x="519.004627" y="190.485984" style="stroke: #000000; stroke-width: 0.8"/>
      </g>
     </g>
    </g>
    <g id="ytick_58">
     <g id="line2d_70">
      <g>
       <use xlink:href="#m0daed7c787" x="519.004627" y="171.980806" style="stroke: #000000; stroke-width: 0.8"/>
      </g>
     </g>
    </g>
    <g id="ytick_59">
     <g id="line2d_71">
      <g>
       <use xlink:href="#m0daed7c787" x="519.004627" y="153.475627" style="stroke: #000000; stroke-width: 0.8"/>
      </g>
     </g>
    </g>
    <g id="ytick_60">
     <g id="line2d_72">
      <g>
       <use xlink:href="#m0daed7c787" x="519.004627" y="134.970449" style="stroke: #000000; stroke-width: 0.8"/>
      </g>
     </g>
    </g>
    <g id="ytick_61">
     <g id="line2d_73">
      <g>
       <use xlink:href="#m0daed7c787" x="519.004627" y="116.46527" style="stroke: #000000; stroke-width: 0.8"/>
      </g>
     </g>
    </g>
    <g id="ytick_62">
     <g id="line2d_74">
      <g>
       <use xlink:href="#m0daed7c787" x="519.004627" y="97.960092" style="stroke: #000000; stroke-width: 0.8"/>
      </g>
     </g>
    </g>
    <g id="ytick_63">
     <g id="line2d_75">
      <g>
       <use xlink:href="#m0daed7c787" x="519.004627" y="79.454914" style="stroke: #000000; stroke-width: 0.8"/>
      </g>
     </g>
    </g>
    <g id="ytick_64">
     <g id="line2d_76">
      <g>
       <use xlink:href="#m0daed7c787" x="519.004627" y="60.949735" style="stroke: #000000; stroke-width: 0.8"/>
      </g>
     </g>
    </g>
   </g>
   <g id="patch_70">
    <path d="M 519.004627 669.4 
L 519.004627 26.16 
" style="fill: none; stroke: #000000; stroke-width: 0.8; stroke-linejoin: miter; stroke-linecap: square"/>
   </g>
   <g id="patch_71">
    <path d="M 519.004627 669.4 
L 912.799253 669.4 
" style="fill: none; stroke: #000000; stroke-width: 0.8; stroke-linejoin: miter; stroke-linecap: square"/>
   </g>
   <g id="text_49">
    <!-- MGMT+ -->
    <g transform="translate(692.206627 20.16) scale(0.12 -0.12)">
     <defs>
      <path id="DejaVuSans-2b" d="M 2944 4013 
L 2944 2272 
L 4684 2272 
L 4684 1741 
L 2944 1741 
L 2944 0 
L 2419 0 
L 2419 1741 
L 678 1741 
L 678 2272 
L 2419 2272 
L 2419 4013 
L 2944 4013 
z
" transform="scale(0.015625)"/>
     </defs>
     <use xlink:href="#DejaVuSans-4d"/>
     <use xlink:href="#DejaVuSans-47" x="86.279297"/>
     <use xlink:href="#DejaVuSans-4d" x="163.769531"/>
     <use xlink:href="#DejaVuSans-54" x="250.048828"/>
     <use xlink:href="#DejaVuSans-2b" x="311.132812"/>
    </g>
   </g>
  </g>
 </g>
 <defs>
  <clipPath id="p9d4c96319f">
   <rect x="109.64" y="26.16" width="393.794627" height="643.24"/>
  </clipPath>
  <clipPath id="p17891a5181">
   <rect x="519.004627" y="26.16" width="393.794627" height="643.24"/>
  </clipPath>
 </defs>
</svg>
